Coordinates
version=1
nRows=20
nColumns=38
inDegrees=no

Units are S.I. units (second, meters, Newtons, ...)
If the header above contains a line with 'inDegrees', this indicates whether rotational values are in degrees (yes) or radians (no).

endheader
time	pelvis_tilt	pelvis_list	pelvis_rotation	pelvis_tx	pelvis_ty	pelvis_tz	hip_flexion_r	hip_adduction_r	hip_rotation_r	knee_angle_r	ankle_angle_r	subtalar_angle_r	mtp_angle_r	hip_flexion_l	hip_adduction_l	hip_rotation_l	knee_angle_l	ankle_angle_l	subtalar_angle_l	mtp_angle_l	lumbar_extension	lumbar_bending	lumbar_rotation	arm_flex_r	arm_add_r	arm_rot_r	elbow_flex_r	pro_sup_r	wrist_flex_r	wrist_dev_r	arm_flex_l	arm_add_l	arm_rot_l	elbow_flex_l	pro_sup_l	wrist_flex_l	wrist_dev_l
1.75	0.155806	1.4167	1.45112	0.594376	1.29491	1.0248	0.0998053	-0.087798	-0.0395514	0.897791	-0.594421	0	0	0.426458	-0.056182	-0.201055	0.375624	-0.143431	0	0	0.0719011	-0.0543382	0.00359968	0.0218344	-0.206083	0.205935	0.461858	1.5708	0	0	-0.109322	-0.343355	0.492446	0.537745	1.01778	0	0
1.76	0.152813	1.41601	1.44126	0.593142	1.3069	1.02661	0.128916	-0.0880216	-0.0249906	0.935879	-0.57844	0	0	0.409748	-0.0572112	-0.209912	0.37175	-0.133632	0	0	0.0749245	-0.0523371	0.00969602	0.0254972	-0.205562	0.243403	0.443962	1.5708	0	0	-0.10405	-0.343357	0.495124	0.539704	1.02512	0	0
1.77	0.153145	1.41678	1.43084	0.591824	1.31887	1.02878	0.154599	-0.0874243	-0.0142698	0.969832	-0.541417	0	0	0.390335	-0.0574708	-0.217941	0.363836	-0.127815	0	0	0.0767637	-0.0501461	0.0113979	0.030278	-0.205033	0.286159	0.425894	1.5708	0	0	-0.101129	-0.342843	0.490606	0.543285	1.03594	0	0
1.78	0.157073	1.41773	1.4191	0.590407	1.33082	1.03117	0.178838	-0.0861049	-0.00717822	0.999569	-0.496044	0	0	0.37011	-0.0575221	-0.22453	0.353132	-0.12512	0	0	0.0786276	-0.0474186	0.0100843	0.0342317	-0.204825	0.329867	0.410222	1.5708	0	0	-0.0996733	-0.341938	0.482074	0.547735	1.05004	0	0
1.79	0.164081	1.41904	1.40668	0.588943	1.34265	1.03373	0.201635	-0.0843531	-0.00412118	1.02455	-0.447895	0	0	0.349498	-0.0574071	-0.228547	0.340755	-0.124798	0	0	0.0798771	-0.0444862	0.00566807	0.0372906	-0.204786	0.372928	0.397891	1.5708	0	0	-0.0994797	-0.341327	0.470327	0.5538	1.06643	0	0
1.8	0.174594	1.42162	1.39215	0.587486	1.35431	1.0365	0.222126	-0.0821166	-0.00332917	1.04408	-0.401503	0	0	0.327636	-0.0574362	-0.231213	0.327579	-0.126635	0	0	0.0791079	-0.0415311	-0.000693446	0.0395167	-0.204989	0.412897	0.389375	1.5708	0	0	-0.100213	-0.341073	0.455515	0.561831	1.08407	0	0
1.81	0.187855	1.42566	1.37598	0.586049	1.36583	1.03943	0.24009	-0.0797637	-0.00435034	1.05777	-0.362538	0	0	0.304393	-0.0572835	-0.233236	0.314515	-0.129642	0	0	0.0761615	-0.0387909	-0.00755272	0.0399632	-0.20524	0.444645	0.385095	1.5708	0	0	-0.100573	-0.3417	0.441659	0.571749	1.0991	0	0
1.82	0.202257	1.42974	1.35994	0.584606	1.37731	1.04237	0.256791	-0.0774819	-0.00757554	1.06562	-0.327023	0	0	0.280972	-0.0567295	-0.23476	0.30161	-0.13353	0	0	0.0730608	-0.0363423	-0.0161087	0.0395141	-0.205413	0.471701	0.382965	1.5708	0	0	-0.102181	-0.342708	0.425904	0.583497	1.11296	0	0
1.83	0.217473	1.43127	1.34576	0.583007	1.38899	1.04513	0.274354	-0.0753039	-0.0146084	1.0672	-0.302375	0	0	0.260084	-0.055749	-0.233348	0.288719	-0.137281	0	0	0.0737201	-0.0335253	-0.0258147	0.0354126	-0.205166	0.487004	0.382789	1.5708	0	0	-0.103781	-0.344256	0.41432	0.594944	1.12205	0	0
1.84	0.234136	1.43019	1.33298	0.58124	1.40083	1.04766	0.292792	-0.0733107	-0.0255863	1.06351	-0.278968	0	0	0.241814	-0.0547139	-0.228183	0.27522	-0.142189	0	0	0.0776338	-0.0303138	-0.0391758	0.0298996	-0.20443	0.497154	0.383107	1.5708	0	0	-0.107396	-0.345656	0.401234	0.606719	1.13053	0	0
1.85	0.255164	1.43069	1.31307	0.579669	1.4121	1.05026	0.309959	-0.0698109	-0.0326918	1.05589	-0.258803	0	0	0.221885	-0.0551452	-0.228244	0.261834	-0.147843	0	0	0.0777674	-0.0264039	-0.0505843	0.0257377	-0.20404	0.501435	0.385185	1.5708	0	0	-0.109475	-0.34669	0.38782	0.618754	1.1381	0	0
1.86	0.288376	1.43542	1.27772	0.578364	1.42289	1.05311	0.32253	-0.064176	-0.0351046	1.04433	-0.240346	0	0	0.196901	-0.0572637	-0.234593	0.248151	-0.153927	0	0	0.07052	-0.0215855	-0.058964	0.0228124	-0.204018	0.498446	0.390212	1.5708	0	0	-0.109502	-0.347853	0.374216	0.63237	1.14453	0	0
1.87	0.329604	1.43864	1.23822	0.576869	1.43401	1.05572	0.333513	-0.0581697	-0.0414853	1.02752	-0.221542	0	0	0.173247	-0.0600579	-0.238085	0.234307	-0.160281	0	0	0.0649597	-0.016031	-0.0703168	0.0172189	-0.203368	0.487099	0.396604	1.5708	0	0	-0.110227	-0.349261	0.361494	0.646194	1.15088	0	0
1.88	0.363857	1.43786	1.20766	0.575263	1.44524	1.05789	0.347198	-0.0528547	-0.0520056	1.00643	-0.202072	0	0	0.154005	-0.062531	-0.237182	0.220051	-0.166863	0	0	0.0641303	-0.0102191	-0.0824177	0.00932961	-0.202104	0.468774	0.403218	1.5708	0	0	-0.110981	-0.350294	0.350197	0.658921	1.15712	0	0
1.89	0.38989	1.43499	1.18565	0.573712	1.45632	1.05973	0.362542	-0.0479854	-0.0637466	0.981858	-0.18234	0	0	0.13743	-0.0648231	-0.23568	0.205884	-0.173459	0	0	0.0653901	-0.00448725	-0.0938049	0.000401562	-0.20015	0.444845	0.410294	1.5708	0	0	-0.110734	-0.351492	0.341078	0.671008	1.16363	0	0
1.9	0.411524	1.43171	1.16848	0.572204	1.46728	1.0613	0.377563	-0.0435752	-0.0760233	0.953996	-0.163233	0	0	0.121498	-0.066924	-0.2343	0.191664	-0.179923	0	0	0.0668851	0.00112071	-0.104505	-0.00899217	-0.198057	0.418303	0.417905	1.56995	0	0	-0.109013	-0.352886	0.334393	0.682294	1.17032	0	0
1.91	0.430258	1.42786	1.15403	0.570729	1.47825	1.06257	0.392199	-0.0391582	-0.088393	0.922775	-0.147692	0	0	0.106074	-0.0690806	-0.234388	0.177554	-0.18522	0	0	0.0692948	0.00685081	-0.114522	-0.0182671	-0.196279	0.393888	0.425329	1.56198	0	0	-0.106465	-0.354621	0.330835	0.692684	1.17616	0	0
1.92	0.448153	1.42399	1.14066	0.569331	1.48922	1.06356	0.405659	-0.0346961	-0.101111	0.888052	-0.133332	0	0	0.0904156	-0.0712546	-0.234013	0.163207	-0.190736	0	0	0.0714269	0.0125812	-0.123742	-0.0279178	-0.194571	0.369362	0.433666	1.54945	0	0	-0.103305	-0.356539	0.328146	0.70333	1.18172	0	0
1.93	0.464367	1.42044	1.12885	0.568068	1.5002	1.06429	0.417749	-0.0303722	-0.113886	0.850142	-0.121508	0	0	0.0741748	-0.0731422	-0.232655	0.148478	-0.196298	0	0	0.0732789	0.0181058	-0.132027	-0.0374612	-0.192851	0.346024	0.441996	1.53368	0	0	-0.0998395	-0.358667	0.325622	0.714305	1.1871	0	0
1.94	0.477089	1.41702	1.12006	0.566897	1.51119	1.0647	0.428969	-0.0264352	-0.12666	0.809377	-0.113254	0	0	0.057838	-0.074342	-0.23116	0.133464	-0.201494	0	0	0.0752752	0.0232473	-0.13945	-0.0466051	-0.191401	0.325134	0.450148	1.51633	0	0	-0.0963569	-0.360963	0.323479	0.725462	1.1928	0	0
